<svg width="889" height="889" viewBox="0 0 889 889" fill="none" xmlns="http://www.w3.org/2000/svg">
<path d="M34.9031 271.193C57.2692 218.314 89.2832 170.829 130.054 130.057C170.826 89.285 218.311 57.272 271.19 34.906C325.95 11.744 384.106 0 444.039 0C503.972 0 562.127 11.744 616.887 34.906C669.766 57.272 717.251 89.285 758.023 130.057C798.794 170.829 830.808 218.313 853.174 271.193C876.336 325.953 888.08 384.108 888.08 444.041C888.08 482.809 883.074 521.294 873.2 558.428C863.619 594.462 849.458 629.235 831.113 661.781C824.057 674.299 808.19 678.727 795.671 671.67C783.154 664.614 778.726 648.746 785.782 636.229C801.968 607.514 814.46 576.839 822.911 545.055C831.625 512.282 836.044 478.296 836.044 444.04C836.044 391.109 825.683 339.774 805.249 291.463C785.507 244.786 757.238 202.862 721.229 166.852C685.219 130.842 643.294 102.574 596.618 82.831C548.306 62.397 496.972 52.036 444.041 52.036C391.109 52.036 339.774 62.397 291.463 82.831C244.786 102.574 202.861 130.842 166.852 166.852C130.843 202.862 102.574 244.787 82.8312 291.463C62.3971 339.774 52.0361 391.109 52.0361 444.04C52.0361 496.972 62.3971 548.306 82.8312 596.617C102.573 643.294 130.842 685.219 166.852 721.228C202.862 757.237 244.787 785.506 291.463 805.248C339.775 825.682 391.109 836.043 444.041 836.043C478.296 836.043 512.283 831.625 545.056 822.91C576.84 814.459 607.515 801.967 636.23 785.781C648.747 778.725 664.615 783.153 671.671 795.67C678.727 808.188 674.299 824.055 661.782 831.111C629.236 849.457 594.463 863.617 558.429 873.198C521.295 883.072 482.81 888.078 444.042 888.078C384.108 888.078 325.953 876.334 271.193 853.172C218.314 830.806 170.829 798.792 130.057 758.021C89.2861 717.249 57.2721 669.764 34.9061 616.885C11.744 562.125 2.3757e-05 503.97 2.3757e-05 444.037C2.3757e-05 384.104 11.7421 325.953 34.9031 271.193Z" fill="black"/>
<path d="M537.426 665.077C507.832 677.594 476.411 683.941 444.037 683.941C411.663 683.941 380.243 677.594 350.648 665.077C322.077 652.993 296.425 635.699 274.402 613.676C252.379 591.653 235.085 566.001 223.001 537.43C210.484 507.836 204.137 476.415 204.137 444.041C204.137 411.667 210.484 380.247 223.001 350.652C235.085 322.081 252.379 296.429 274.402 274.406C296.425 252.383 322.077 235.09 350.648 223.005C380.242 210.488 411.663 204.141 444.037 204.141C476.411 204.141 507.831 210.488 537.426 223.005C565.997 235.089 591.65 252.383 613.673 274.406C635.696 296.429 652.99 322.081 665.074 350.652C677.591 380.247 683.938 411.667 683.938 444.041C683.938 476.414 677.591 507.835 665.074 537.43C658.677 552.555 650.805 566.853 641.559 580.237L799.876 738.554C816.81 755.488 816.81 782.944 799.876 799.879C791.409 808.346 780.311 812.58 769.213 812.58C758.115 812.58 747.018 808.346 738.55 799.879L580.232 641.562C566.849 650.807 552.552 658.679 537.426 665.077ZM572.851 315.227C538.444 280.82 492.697 261.871 444.038 261.871C395.379 261.871 349.632 280.82 315.225 315.227C280.817 349.634 261.868 395.381 261.868 444.041C261.868 492.701 280.817 538.447 315.225 572.854C349.632 607.262 395.379 626.211 444.038 626.211C492.697 626.211 538.444 607.262 572.851 572.854C607.26 538.447 626.208 492.7 626.208 444.041C626.208 395.382 607.26 349.635 572.851 315.227Z" fill="#0098FF"/>
<path d="M551.863 444.041C551.863 429.722 549.064 415.845 543.544 402.795C538.206 390.176 530.561 378.838 520.821 369.098C511.078 359.356 499.741 351.711 487.124 346.374C480.627 343.626 473.855 341.531 466.996 340.146C454.476 337.618 446.375 325.42 448.903 312.9C451.43 300.38 463.627 292.279 476.15 294.807C486.042 296.804 495.796 299.821 505.143 303.774C523.273 311.443 539.552 322.417 553.528 336.391C567.501 350.364 578.476 366.643 586.145 384.776C594.09 403.559 598.118 423.499 598.118 444.041C598.118 456.814 587.764 467.168 574.991 467.168C562.218 467.168 551.863 456.814 551.863 444.041Z" fill="#0098FF"/>
</svg>
