<svg width="378" height="66" viewBox="0 0 378 66" fill="none" xmlns="http://www.w3.org/2000/svg">
<path d="M13 25L0 25L0 66H13L13 25Z" fill="#434343"/>
<path d="M30 34H17L17 66H30L30 34Z" fill="#434343"/>
<path d="M47 14L34 14L34 66H47L47 14Z" fill="#434343"/>
<path d="M63.9975 0L51.3647 0L51.3647 65.7304H63.9975L63.9975 0Z" fill="#434343"/>
<path d="M9.80702 47L13 50.1474L13 66H0L0 56.667L9.80702 47Z" fill="black"/>
<path d="M22.9494 60.7344L30 54V66H17L17 55.0519L22.9494 60.7344Z" fill="black"/>
<path d="M40.4782 42.7893L46.873 49.1842V65.7285H34.2416L34.2416 49.0259L40.4782 42.7893Z" fill="black"/>
<path d="M64.0001 53.7997V65.7284H51.3623V53.6731L57.7445 60.0553L64.0001 53.7997Z" fill="black"/>
<path d="M93.524 38.8V64H87.872V60.94C86.144 63.268 83.6 64.432 80.24 64.432C77.264 64.432 74.936 63.496 73.256 61.624C71.6 59.728 70.772 57.04 70.772 53.56V38.8H76.604V53.38C76.604 55.396 77.072 56.92 78.008 57.952C78.968 58.96 80.264 59.464 81.896 59.464C83.648 59.464 85.052 58.924 86.108 57.844C87.164 56.74 87.692 55.12 87.692 52.984V38.8H93.524ZM105.62 64.288C104.012 64.288 102.44 64.096 100.904 63.712C99.3677 63.304 98.1437 62.8 97.2317 62.2L99.1037 58.168C99.9677 58.72 101.012 59.176 102.236 59.536C103.46 59.872 104.66 60.04 105.836 60.04C108.212 60.04 109.4 59.452 109.4 58.276C109.4 57.724 109.076 57.328 108.428 57.088C107.78 56.848 106.784 56.644 105.44 56.476C103.856 56.236 102.548 55.96 101.516 55.648C100.484 55.336 99.5837 54.784 98.8157 53.992C98.0717 53.2 97.6997 52.072 97.6997 50.608C97.6997 49.384 98.0477 48.304 98.7437 47.368C99.4637 46.408 100.496 45.664 101.84 45.136C103.208 44.608 104.816 44.344 106.664 44.344C108.032 44.344 109.388 44.5 110.732 44.812C112.1 45.1 113.228 45.508 114.116 46.036L112.244 50.032C110.54 49.072 108.68 48.592 106.664 48.592C105.464 48.592 104.564 48.76 103.964 49.096C103.364 49.432 103.064 49.864 103.064 50.392C103.064 50.992 103.388 51.412 104.036 51.652C104.684 51.892 105.716 52.12 107.132 52.336C108.716 52.6 110.012 52.888 111.02 53.2C112.028 53.488 112.904 54.028 113.648 54.82C114.392 55.612 114.764 56.716 114.764 58.132C114.764 59.332 114.404 60.4 113.684 61.336C112.964 62.272 111.908 63.004 110.516 63.532C109.148 64.036 107.516 64.288 105.62 64.288ZM127.985 59.788C128.993 59.788 129.881 59.644 130.649 59.356C131.441 59.044 132.173 58.564 132.845 57.916L135.833 61.156C134.009 63.244 131.345 64.288 127.841 64.288C125.657 64.288 123.725 63.868 122.045 63.028C120.365 62.164 119.069 60.976 118.157 59.464C117.245 57.952 116.789 56.236 116.789 54.316C116.789 52.42 117.233 50.716 118.121 49.204C119.033 47.668 120.269 46.48 121.829 45.64C123.413 44.776 125.189 44.344 127.157 44.344C129.005 44.344 130.685 44.74 132.197 45.532C133.709 46.3 134.909 47.428 135.797 48.916C136.709 50.38 137.165 52.12 137.165 54.136L122.837 56.908C123.245 57.868 123.881 58.588 124.745 59.068C125.633 59.548 126.713 59.788 127.985 59.788ZM127.157 48.592C125.741 48.592 124.589 49.048 123.701 49.96C122.813 50.872 122.345 52.132 122.297 53.74L131.729 51.904C131.465 50.896 130.925 50.092 130.109 49.492C129.293 48.892 128.309 48.592 127.157 48.592ZM146.304 47.188C146.976 46.252 147.876 45.544 149.004 45.064C150.156 44.584 151.476 44.344 152.964 44.344V49.528C152.34 49.48 151.92 49.456 151.704 49.456C150.096 49.456 148.836 49.912 147.924 50.824C147.012 51.712 146.556 53.056 146.556 54.856V64H140.94V44.632H146.304V47.188ZM167.035 38.8H178.483C181.219 38.8 183.631 39.328 185.719 40.384C187.831 41.416 189.463 42.88 190.615 44.776C191.791 46.672 192.379 48.88 192.379 51.4C192.379 53.92 191.791 56.128 190.615 58.024C189.463 59.92 187.831 61.396 185.719 62.452C183.631 63.484 181.219 64 178.483 64H167.035V38.8ZM178.195 59.212C180.715 59.212 182.719 58.516 184.207 57.124C185.719 55.708 186.475 53.8 186.475 51.4C186.475 49 185.719 47.104 184.207 45.712C182.719 44.296 180.715 43.588 178.195 43.588H172.867V59.212H178.195ZM216.037 44.632V64H210.673V61.768C209.281 63.448 207.265 64.288 204.625 64.288C202.801 64.288 201.145 63.88 199.657 63.064C198.193 62.248 197.041 61.084 196.201 59.572C195.361 58.06 194.941 56.308 194.941 54.316C194.941 52.324 195.361 50.572 196.201 49.06C197.041 47.548 198.193 46.384 199.657 45.568C201.145 44.752 202.801 44.344 204.625 44.344C207.097 44.344 209.029 45.124 210.421 46.684V44.632H216.037ZM205.597 59.68C207.013 59.68 208.189 59.2 209.125 58.24C210.061 57.256 210.529 55.948 210.529 54.316C210.529 52.684 210.061 51.388 209.125 50.428C208.189 49.444 207.013 48.952 205.597 48.952C204.157 48.952 202.969 49.444 202.033 50.428C201.097 51.388 200.629 52.684 200.629 54.316C200.629 55.948 201.097 57.256 202.033 58.24C202.969 59.2 204.157 59.68 205.597 59.68ZM227.753 64.288C226.145 64.288 224.573 64.096 223.037 63.712C221.501 63.304 220.277 62.8 219.365 62.2L221.237 58.168C222.101 58.72 223.145 59.176 224.369 59.536C225.593 59.872 226.793 60.04 227.969 60.04C230.345 60.04 231.533 59.452 231.533 58.276C231.533 57.724 231.209 57.328 230.561 57.088C229.913 56.848 228.917 56.644 227.573 56.476C225.989 56.236 224.681 55.96 223.649 55.648C222.617 55.336 221.717 54.784 220.949 53.992C220.205 53.2 219.833 52.072 219.833 50.608C219.833 49.384 220.181 48.304 220.877 47.368C221.597 46.408 222.629 45.664 223.973 45.136C225.341 44.608 226.949 44.344 228.797 44.344C230.165 44.344 231.521 44.5 232.865 44.812C234.233 45.1 235.361 45.508 236.249 46.036L234.377 50.032C232.673 49.072 230.813 48.592 228.797 48.592C227.597 48.592 226.697 48.76 226.097 49.096C225.497 49.432 225.197 49.864 225.197 50.392C225.197 50.992 225.521 51.412 226.169 51.652C226.817 51.892 227.849 52.12 229.265 52.336C230.849 52.6 232.145 52.888 233.153 53.2C234.161 53.488 235.037 54.028 235.781 54.82C236.525 55.612 236.897 56.716 236.897 58.132C236.897 59.332 236.537 60.4 235.817 61.336C235.097 62.272 234.041 63.004 232.649 63.532C231.281 64.036 229.649 64.288 227.753 64.288ZM252.134 44.344C254.534 44.344 256.466 45.064 257.93 46.504C259.418 47.944 260.162 50.08 260.162 52.912V64H254.546V53.776C254.546 52.24 254.21 51.1 253.538 50.356C252.866 49.588 251.894 49.204 250.622 49.204C249.206 49.204 248.078 49.648 247.238 50.536C246.398 51.4 245.978 52.696 245.978 54.424V64H240.362V37.288H245.978V46.648C246.722 45.904 247.622 45.34 248.678 44.956C249.734 44.548 250.886 44.344 252.134 44.344ZM276.7 44.344C278.5 44.344 280.132 44.764 281.596 45.604C283.084 46.42 284.248 47.584 285.088 49.096C285.928 50.584 286.348 52.324 286.348 54.316C286.348 56.308 285.928 58.06 285.088 59.572C284.248 61.06 283.084 62.224 281.596 63.064C280.132 63.88 278.5 64.288 276.7 64.288C274.036 64.288 272.008 63.448 270.616 61.768V64H265.252V37.288H270.868V46.684C272.284 45.124 274.228 44.344 276.7 44.344ZM275.728 59.68C277.168 59.68 278.344 59.2 279.256 58.24C280.192 57.256 280.66 55.948 280.66 54.316C280.66 52.684 280.192 51.388 279.256 50.428C278.344 49.444 277.168 48.952 275.728 48.952C274.288 48.952 273.1 49.444 272.164 50.428C271.252 51.388 270.796 52.684 270.796 54.316C270.796 55.948 271.252 57.256 272.164 58.24C273.1 59.2 274.288 59.68 275.728 59.68ZM299.324 64.288C297.284 64.288 295.448 63.868 293.816 63.028C292.208 62.164 290.948 60.976 290.036 59.464C289.124 57.952 288.668 56.236 288.668 54.316C288.668 52.396 289.124 50.68 290.036 49.168C290.948 47.656 292.208 46.48 293.816 45.64C295.448 44.776 297.284 44.344 299.324 44.344C301.364 44.344 303.188 44.776 304.796 45.64C306.404 46.48 307.664 47.656 308.576 49.168C309.488 50.68 309.944 52.396 309.944 54.316C309.944 56.236 309.488 57.952 308.576 59.464C307.664 60.976 306.404 62.164 304.796 63.028C303.188 63.868 301.364 64.288 299.324 64.288ZM299.324 59.68C300.764 59.68 301.94 59.2 302.852 58.24C303.788 57.256 304.256 55.948 304.256 54.316C304.256 52.684 303.788 51.388 302.852 50.428C301.94 49.444 300.764 48.952 299.324 48.952C297.884 48.952 296.696 49.444 295.76 50.428C294.824 51.388 294.356 52.684 294.356 54.316C294.356 55.948 294.824 57.256 295.76 58.24C296.696 59.2 297.884 59.68 299.324 59.68ZM333.353 44.632V64H327.989V61.768C326.597 63.448 324.581 64.288 321.941 64.288C320.117 64.288 318.461 63.88 316.973 63.064C315.509 62.248 314.357 61.084 313.517 59.572C312.677 58.06 312.257 56.308 312.257 54.316C312.257 52.324 312.677 50.572 313.517 49.06C314.357 47.548 315.509 46.384 316.973 45.568C318.461 44.752 320.117 44.344 321.941 44.344C324.413 44.344 326.345 45.124 327.737 46.684V44.632H333.353ZM322.913 59.68C324.329 59.68 325.505 59.2 326.441 58.24C327.377 57.256 327.845 55.948 327.845 54.316C327.845 52.684 327.377 51.388 326.441 50.428C325.505 49.444 324.329 48.952 322.913 48.952C321.473 48.952 320.285 49.444 319.349 50.428C318.413 51.388 317.945 52.684 317.945 54.316C317.945 55.948 318.413 57.256 319.349 58.24C320.285 59.2 321.473 59.68 322.913 59.68ZM343.917 47.188C344.589 46.252 345.489 45.544 346.617 45.064C347.769 44.584 349.089 44.344 350.577 44.344V49.528C349.953 49.48 349.533 49.456 349.317 49.456C347.709 49.456 346.449 49.912 345.537 50.824C344.625 51.712 344.169 53.056 344.169 54.856V64H338.553V44.632H343.917V47.188ZM373.468 37.288V64H368.104V61.768C366.712 63.448 364.696 64.288 362.056 64.288C360.232 64.288 358.576 63.88 357.088 63.064C355.624 62.248 354.472 61.084 353.632 59.572C352.792 58.06 352.372 56.308 352.372 54.316C352.372 52.324 352.792 50.572 353.632 49.06C354.472 47.548 355.624 46.384 357.088 45.568C358.576 44.752 360.232 44.344 362.056 44.344C364.528 44.344 366.46 45.124 367.852 46.684V37.288H373.468ZM363.028 59.68C364.444 59.68 365.62 59.2 366.556 58.24C367.492 57.256 367.96 55.948 367.96 54.316C367.96 52.684 367.492 51.388 366.556 50.428C365.62 49.444 364.444 48.952 363.028 48.952C361.588 48.952 360.4 49.444 359.464 50.428C358.528 51.388 358.06 52.684 358.06 54.316C358.06 55.948 358.528 57.256 359.464 58.24C360.4 59.2 361.588 59.68 363.028 59.68Z" fill="black"/>
</svg>
